<?xml version="1.0" encoding="UTF-8" standalone="no"?>
<!DOCTYPE svg PUBLIC "-//W3C//DTD SVG 1.1//EN" "http://www.w3.org/Graphics/SVG/1.1/DTD/svg11.dtd">
<svg width="1024px" height="1024px" version="1.1" xmlns="http://www.w3.org/2000/svg" xmlns:xlink="http://www.w3.org/1999/xlink" xml:space="preserve" xmlns:serif="http://www.serif.com/" style="fill-rule:evenodd;clip-rule:evenodd;stroke-linejoin:round;stroke-miterlimit:2;">
    <g transform="matrix(1.009789,0,0,1.009789,-522.817186,-526.814813)">
        <path d="M779.587,647.937C789.041,638.378 808.529,629.193 820.544,622.741C952.723,551.761 1123.7,558.003 1251.63,635.768C1266.77,644.974 1286.33,656.201 1298.9,668.544C1388.93,734.256 1453.98,838.667 1472.03,949.077C1474.64,965.046 1480.04,1013.85 1477.78,1029.07C1479.43,1041.04 1476.79,1067.66 1475.26,1080.11C1465.72,1159.73 1435.11,1235.36 1386.59,1299.2C1286.93,1430.54 1123.11,1506.1 959,1478.64C946.703,1476.58 934.186,1475.01 922.202,1471.43C918.954,1468.89 885.334,1459.88 877.5,1456.91C860.804,1450.58 846.422,1446.07 830.489,1436.53C811.601,1428.69 754.259,1393.49 740.668,1375.18C739.4,1373.47 729.252,1334.8 728.421,1330.73C732.655,1327.9 731.791,1327.26 732.543,1322.36L728.671,1315.78C728.487,1319.78 729.949,1321.29 727.921,1324.94C717.954,1342.9 735.488,1353.32 733.929,1364.92C731.337,1367.68 732.846,1366.93 729.479,1367.66C716.056,1354.91 702.965,1344.46 689.675,1330.61C678.797,1319.26 659.317,1288.86 650.305,1282.06C614.115,1228.97 578.8,1146 575.481,1081.35C570.378,1073.13 570.518,989.755 572.625,975.61C573.232,971.728 574.302,967.057 575.086,963.132C575.381,960.955 575.732,958.785 576.14,956.627C578.662,943.007 581.938,924.414 586.092,911.101C586.639,909.345 590.266,906.872 591.952,905.714L588.771,904.263C587.532,902.55 587.16,900.809 587.872,898.696C617.232,811.552 669.848,728.307 744.259,674.049C755.18,663.429 767.005,656.507 779.587,647.937Z" style="fill:#768af9;fill-rule:nonzero;"/>
    </g>
    <g transform="matrix(1.009789,0,0,1.009789,-522.817186,-526.814813)">
        <path d="M779.587,647.937C789.041,638.378 808.529,629.193 820.544,622.741C952.723,551.761 1123.7,558.003 1251.63,635.768C1266.77,644.974 1286.33,656.201 1298.9,668.544C1292.26,668.32 1287.78,667.259 1281.78,664.401C1272.87,661.653 1266.87,659.675 1257.57,658.277C1259.41,662.59 1259.97,661.833 1258.73,664.978C1255.41,666.696 1253.73,666.6 1250.06,666.973C1250.23,669.452 1250.43,668.942 1251.88,671.405L1251.38,673.224L1249.55,673.782C1247.93,672.597 1246.29,671.422 1244.65,670.258L1242.61,670.686C1242.43,675.225 1246.94,677.911 1250.26,680.652L1249.5,679.895L1250.32,682.027C1248.04,682.444 1245.96,682.158 1244.02,682.533C1240.58,683.995 1240.63,683.296 1239.05,685.929C1237.36,682.6 1237.05,681.114 1233.72,679.501C1226.95,679.881 1225.11,685.584 1226.79,691.29C1226.26,694.884 1226.38,695.114 1224.78,698.51C1219.43,698.165 1211.83,696.557 1206.34,695.561L1205.76,696.297C1197.14,696.106 1199.29,695.263 1192.02,692.852L1190.56,692.379C1184.21,692.118 1182.07,693.044 1177.95,688.21C1176.88,684.133 1177.68,681.39 1178.33,677.155L1176.82,675.921L1176.62,676.978C1173.92,692.408 1180.88,699.616 1161.2,702.275C1155.37,708.577 1147.62,701.526 1140.86,702.411L1139.04,701.915C1125.62,698.172 1116.89,694.079 1104.49,689.257C1097.11,687.695 1079.48,689.685 1073.31,693.319C1056.68,703.116 1049.89,722.559 1033.12,732.229C1020.82,739.323 1017.46,738.478 1017.77,752.354L1019.57,764.341C1022.23,770.893 1025.54,771.63 1032.13,772.23C1029.74,778.192 1029.98,781.895 1029.77,788.28L1026.96,789.459C1024.12,790.026 1023.82,790.175 1020.97,790.06C1011.67,794.236 1009.73,795.842 1002.95,803.417C1001.85,801.705 1000.72,800.953 999.169,799.577C985.959,806.292 981.528,805.105 969.812,809.29L970.568,811.832C973.656,812.958 972.61,811.946 974.307,814.3C970.248,818.497 966.625,817.064 964.051,820.596L964.716,822.157L965.889,822.533C970.237,825.376 970.912,826.066 974.378,829.964C975.424,838.843 977.994,850.951 963.963,850.737C954.019,850.585 945.142,849.096 935.04,849.757C932.885,857.137 925.599,882.097 926.151,888.883C930.358,896.045 938.218,893.942 945.924,902.014C929.508,920.37 921.786,912.291 914.301,941.297C901.657,954.889 875.331,967.335 869.639,989.279C862.705,1017.46 874.4,1018.97 856.115,1044.88C862.677,1060.13 881.397,1086.86 893.015,1099.62C896.202,1103.12 903.646,1107.35 907.388,1110.54C916.217,1113.74 917.143,1110.04 926.572,1108.81C933.605,1107.88 945.296,1111.02 951.573,1110.35C970.025,1108.38 985.607,1093.07 998.882,1116.43L997.655,1118.02C1001.02,1122.53 1012.48,1121.77 1018.79,1123.32C1021.38,1127.82 1018.89,1132.36 1020.5,1138.21C1019.51,1144.5 1017.3,1149.08 1015.54,1155.09C1018.49,1162.89 1022.3,1168.15 1027.27,1174.86C1038.43,1189.94 1042.83,1203.8 1043.73,1222.62C1037.89,1234.67 1030.34,1249.09 1034.45,1262.83C1033.56,1266.24 1034.11,1267.16 1035.14,1270.35C1031.76,1274.78 1027.53,1279.94 1024.8,1284.69C1027.12,1294.77 1039.79,1316.74 1036.34,1322.36C1027.29,1337.13 1009.53,1338.4 995.04,1343.05C994.867,1343.7 994.694,1344.36 994.52,1345.01L995.388,1347.51C985.466,1350.15 984.97,1348.47 979.612,1356.38C975.734,1354.94 976.261,1350.83 971.848,1349.58C959.999,1356.73 969.287,1363.29 966.5,1371.5C963.725,1372.13 961.884,1371.36 959.1,1370.66C955.561,1372.76 948.735,1377.45 945.213,1377.83C941.469,1375.85 942.284,1375.49 939.023,1376.1L938.286,1379.35C934.625,1379.48 933.822,1377.74 931.515,1374.8C931.011,1374.94 924.022,1376.75 924.021,1376.75C916.478,1376.2 906.991,1366.79 900.562,1370.35C899.355,1373.76 899.575,1375.12 899.584,1378.69C896.564,1380.25 895.088,1377.17 891.091,1378.55C888.105,1382.24 890.807,1386.76 888.245,1391.6C884.392,1391.51 880.762,1390.79 877.798,1392.4C876.349,1396.06 874.99,1399.65 873.308,1403.21C870.505,1403.7 871.488,1403.67 868.712,1403.25C861.555,1407.72 866.627,1423.87 853.937,1426.8C851.929,1425.89 851.304,1425.2 849.136,1425.25C843.789,1428.5 835.639,1433.87 830.489,1436.53C811.601,1428.69 754.259,1393.49 740.668,1375.18C739.4,1373.47 729.252,1334.8 728.421,1330.73C732.655,1327.9 731.791,1327.26 732.543,1322.36L728.671,1315.78C728.487,1319.78 729.949,1321.29 727.921,1324.94C717.954,1342.9 735.488,1353.32 733.929,1364.92C731.337,1367.68 732.846,1366.93 729.479,1367.66C716.056,1354.91 702.965,1344.46 689.675,1330.61C678.797,1319.26 659.317,1288.86 650.305,1282.06C614.115,1228.97 578.8,1146 575.481,1081.35C570.378,1073.13 570.518,989.755 572.625,975.61C573.232,971.728 574.302,967.057 575.086,963.132C575.381,960.955 575.732,958.785 576.14,956.627C578.662,943.007 581.938,924.414 586.092,911.101C586.639,909.345 590.266,906.872 591.952,905.714L588.771,904.263C587.532,902.55 587.16,900.809 587.872,898.696C617.232,811.552 669.848,728.307 744.259,674.049C755.18,663.429 767.005,656.507 779.587,647.937Z" style="fill:#4749cb;fill-rule:nonzero;"/>
    </g>
    <g transform="matrix(1.009789,0,0,1.009789,-522.817186,-526.814813)">
        <path d="M779.587,647.937C789.041,638.378 808.529,629.193 820.544,622.741C952.723,551.761 1123.7,558.003 1251.63,635.768C1266.77,644.974 1286.33,656.201 1298.9,668.544C1292.26,668.32 1287.78,667.259 1281.78,664.401C1272.87,661.653 1266.87,659.675 1257.57,658.277C1259.41,662.59 1259.97,661.833 1258.73,664.978C1255.41,666.696 1253.73,666.6 1250.06,666.973C1250.23,669.452 1250.43,668.942 1251.88,671.405L1251.38,673.224L1249.55,673.782C1247.93,672.597 1246.29,671.422 1244.65,670.258L1242.61,670.686C1242.43,675.225 1246.94,677.911 1250.26,680.652L1249.5,679.895L1250.32,682.027C1248.04,682.444 1245.96,682.158 1244.02,682.533C1240.58,683.995 1240.63,683.296 1239.05,685.929C1237.36,682.6 1237.05,681.114 1233.72,679.501C1226.95,679.881 1225.11,685.584 1226.79,691.29C1226.26,694.884 1226.38,695.114 1224.78,698.51C1219.43,698.165 1211.83,696.557 1206.34,695.561L1205.76,696.297C1197.14,696.106 1199.29,695.263 1192.02,692.852L1190.56,692.379C1184.21,692.118 1182.07,693.044 1177.95,688.21C1176.88,684.133 1177.68,681.39 1178.33,677.155L1176.82,675.921L1176.62,676.978C1173.92,692.408 1180.88,699.616 1161.2,702.275C1155.37,708.577 1147.62,701.526 1140.86,702.411L1139.04,701.915C1125.62,698.172 1116.89,694.079 1104.49,689.257C1097.11,687.695 1079.48,689.685 1073.31,693.319C1056.68,703.116 1049.89,722.559 1033.12,732.229C1020.82,739.323 1017.46,738.478 1017.77,752.354L1019.57,764.341C1022.23,770.893 1025.54,771.63 1032.13,772.23C1029.74,778.192 1029.98,781.895 1029.77,788.28L1026.96,789.459C1024.12,790.026 1023.82,790.175 1020.97,790.06C1011.67,794.236 1009.73,795.842 1002.95,803.417C1001.85,801.705 1000.72,800.953 999.169,799.577C985.959,806.292 981.528,805.105 969.812,809.29L970.568,811.832C973.656,812.958 972.61,811.946 974.307,814.3C970.248,818.497 966.625,817.064 964.051,820.596L964.716,822.157L965.889,822.533C970.237,825.376 970.912,826.066 974.378,829.964C975.424,838.843 977.994,850.951 963.963,850.737C954.019,850.585 945.142,849.096 935.04,849.757C932.885,857.137 925.599,882.097 926.151,888.883C930.358,896.045 938.218,893.942 945.924,902.014C929.508,920.37 921.786,912.291 914.301,941.297C901.657,954.889 875.331,967.335 869.639,989.279C863.556,974.67 904.555,949.62 911.492,940.722C914.262,937.169 915.47,925.91 918.721,922.089C921.106,919.286 925.293,916.412 928.091,913.896C927.706,905.613 919.681,896.962 922.52,888.22C927.342,883.566 925.259,879.987 927.387,874.402L926.058,875.38L925.887,878.885C905.351,899.346 886.538,921.05 866.136,941.582C859.814,947.944 852.519,955.899 845.437,961.156C837.616,962.709 831.081,980.094 820.853,980.57C798.472,981.613 685.496,983.479 670.866,977.383C665.957,972.049 664.069,962.852 662.044,955.983C653.821,928.095 649.245,902.726 649.499,873.511C658.472,864.267 670.689,852.648 682.073,846.788C688.429,843.516 715.454,834.015 718.371,828.661L717.129,826.423C711.888,829.998 709.646,830.104 703.256,830.231C700.041,831.638 699.127,832.728 696.24,832.282L696.711,830.872C697.249,829.222 697.568,828.053 697.983,826.388C696.504,825.482 696.177,825.451 694.071,826.263C657.227,840.483 629.09,873.996 603.86,903.072C603.308,903.708 601.736,908.937 601.434,909.97C596.01,919.889 592.819,938.393 590.79,949.73C588.223,934.843 590.799,926.802 593.349,912.057C594.073,907.871 593.874,908.276 591.952,905.714L588.771,904.263C587.532,902.55 587.16,900.809 587.872,898.696C617.232,811.552 669.848,728.307 744.259,674.049C755.18,663.429 767.005,656.507 779.587,647.937Z" style="fill:#29a1eb;fill-rule:nonzero;"/>
    </g>
    <g transform="matrix(1.009789,0,0,1.009789,-522.817186,-526.814813)">
        <path d="M801.135,644.762L804.99,650.635C809.525,648.253 816.449,647.676 821.633,647.015L824.632,649.53C824.701,653.667 825.396,652.055 823.374,654.843C819.744,656.075 813.206,654.246 808.874,653.585L807.854,655.351C804.053,655.11 786.2,665.673 781.832,668.227L779.462,665.898C778.076,658.837 782.448,656.594 787.31,652.493L788.415,651.909C795.328,648.592 796.051,653.189 800.598,650.204C798.336,649.318 797.487,648.959 795.374,647.781L796.078,646.332L801.135,644.762Z" style="fill:#8aeffa;fill-rule:nonzero;"/>
    </g>
    <g transform="matrix(1.009789,0,0,1.009789,-522.817186,-526.814813)">
        <path d="M802.983,652.346L808.874,653.585L807.854,655.351C804.053,655.11 786.2,665.673 781.832,668.227L779.462,665.898C783.927,664.489 787.077,660.429 790.415,656.991C796.523,656.169 798.42,656.377 802.983,652.346Z" style="fill:#29a1eb;fill-rule:nonzero;"/>
    </g>
    <g transform="matrix(1.009789,0,0,1.009789,-522.817186,-526.814813)">
        <path d="M755.913,682.105L754.295,682.647C768.645,686.98 774.425,673.07 783.708,671.955L785.371,673.298C781.729,674.547 760.981,689.504 760.985,692.379L752.608,699.476C750.523,700.591 749.671,701.11 747.448,701.859L746.438,700.372C744.91,709.516 742.425,703.336 734.648,709.201L734.359,709.905C737.578,711.383 740.286,712.055 741.897,715.03L741.372,717.155L746.116,716.334L749.48,713.458C754.239,714.376 758.809,714.695 762.505,717.572C764.434,721.585 763.864,722.89 762.59,727.711C759.969,732.751 756.88,738.339 754.616,743.49C765.256,736.62 768.399,735.546 779.105,729.779C765.234,753.008 768.275,754.092 773.613,778.901L762.02,785.381L763.668,786.633C759.335,790.544 748.486,786.366 735.958,793.334C729.585,791.087 721.76,788.648 715.368,792.434C717.686,796.72 723.205,795.234 727.586,795.885C735.463,797.021 741.09,795.383 749.51,796.5C745.127,800.907 744.76,802.012 739.017,803.875C735.875,802.844 734.267,801.878 731.223,803C724.435,808.379 719.952,818.914 715.028,821.846L719.847,822.598C719.526,824.54 719.976,823.637 718.152,825.105L717.129,826.423C711.888,829.998 709.646,830.104 703.256,830.231C700.041,831.638 699.127,832.728 696.24,832.282L696.711,830.872C697.249,829.222 697.568,828.053 697.983,826.388C696.504,825.482 696.177,825.451 694.071,826.263C657.227,840.483 629.09,873.996 603.86,903.072C603.308,903.708 601.736,908.937 601.434,909.97C596.01,919.889 592.819,938.393 590.79,949.73C588.223,934.843 590.799,926.802 593.349,912.057C594.073,907.871 593.874,908.276 591.952,905.714L588.771,904.263C587.532,902.55 587.16,900.809 587.872,898.696C617.232,811.552 669.848,728.307 744.259,674.049L746.377,676.804C747.99,677.294 747.145,677.248 748.913,676.842C753.186,677.69 754.25,677.566 755.913,682.105Z" style="fill:#77cbfb;fill-rule:nonzero;"/>
    </g>
    <g transform="matrix(1.009789,0,0,1.009789,-522.817186,-526.814813)">
        <path d="M724.766,718.258C728.828,715.866 730.612,715.108 731.705,709.929L734.359,709.905C737.578,711.383 740.286,712.055 741.897,715.03L741.372,717.155L746.116,716.334C733.522,733.021 719.831,753.247 702.245,764.338C700.828,758.889 700.675,757.845 696.656,753.991C688.291,744.32 685.821,741.925 695.64,731.664C699.517,726.93 701.613,724.784 705.969,720.613C709.596,722.657 709.78,722.597 714.061,722.524L724.766,718.258Z" style="fill:#2185dc;fill-rule:nonzero;"/>
    </g>
    <g transform="matrix(1.009789,0,0,1.009789,-522.817186,-526.814813)">
        <path d="M695.64,731.664C699.517,726.93 701.613,724.784 705.969,720.613C709.596,722.657 709.78,722.597 714.061,722.524C709.91,725.224 700.847,731.923 696.629,732.266L695.64,731.664Z" style="fill:#196ecc;fill-rule:nonzero;"/>
    </g>
    <g transform="matrix(1.009789,0,0,1.009789,-522.817186,-526.814813)">
        <path d="M724.766,718.258C728.828,715.866 730.612,715.108 731.705,709.929L734.359,709.905C737.578,711.383 740.286,712.055 741.897,715.03L741.372,717.155L724.766,718.258Z" style="fill:#196ecc;fill-rule:nonzero;"/>
    </g>
    <g transform="matrix(1.009789,0,0,1.009789,-522.817186,-526.814813)">
        <path d="M727.586,795.885C735.463,797.021 741.09,795.383 749.51,796.5C745.127,800.907 744.76,802.012 739.017,803.875C735.875,802.844 734.267,801.878 731.223,803C724.435,808.379 719.952,818.914 715.028,821.846L710.529,817.169C712.402,814.551 716.784,808.688 716.383,805.901C712.54,806.337 711.563,806.471 707.758,806.158L707.658,804.848C711.737,800.231 721.671,797.162 727.586,795.885Z" style="fill:#196ecc;fill-rule:nonzero;"/>
    </g>
    <g transform="matrix(1.009789,0,0,1.009789,-522.817186,-526.814813)">
        <path d="M730.684,705.456C736.329,700.301 738.735,697.786 746.438,700.372C744.91,709.516 742.425,703.336 734.648,709.201L734.359,709.905L731.705,709.929C730.612,715.108 728.828,715.866 724.766,718.258L714.061,722.524C709.78,722.597 709.596,722.657 705.969,720.613C712.143,714.589 722.15,707.228 730.684,705.456Z" style="fill:#1755c1;fill-rule:nonzero;"/>
    </g>
    <g transform="matrix(1.009789,0,0,1.009789,-522.817186,-526.814813)">
        <path d="M696.656,753.991C700.675,757.845 700.828,758.889 702.245,764.338C697.489,767.971 692.555,772.525 687.018,774.058L685.729,773.272C686.104,768.228 693.588,758.34 696.656,753.991Z" style="fill:#196ecc;fill-rule:nonzero;"/>
    </g>
    <g transform="matrix(1.009789,0,0,1.009789,-522.817186,-526.814813)">
        <path d="M703.256,830.231C704.564,825.753 707.622,820.75 710.529,817.169L715.028,821.846L719.847,822.598C719.526,824.54 719.976,823.637 718.152,825.105L717.129,826.423C711.888,829.998 709.646,830.104 703.256,830.231Z" style="fill:#8aeffa;fill-rule:nonzero;"/>
    </g>
    <g transform="matrix(1.009789,0,0,1.009789,-522.817186,-526.814813)">
        <path d="M889.908,620.581C893.134,621.48 896.333,621.948 898.727,624.127L898.383,625.59C895.253,627.166 894.556,627.228 891.231,628.088L891.061,629.062C904.607,627.305 915.848,627.612 929.398,627.385C940.897,627.192 953.329,623.832 965.013,624.97C970.602,625.508 978.952,632.846 981.627,633.077C986.788,633.524 990.423,632.177 996.64,633.945L997.366,635.085L997.114,635.546C991.074,637.212 971.565,642.643 971.11,646.884C969.37,663.101 962.028,664.046 949.524,672.59C947.482,673.985 944.376,681.056 941.864,682.459C938.802,683.711 938.337,680.351 934.083,682.957C935.226,689.38 938.369,683.029 936.523,689.542C929.831,694.884 920.479,696.807 912.225,698.514C897.363,701.586 884.117,704.935 870.8,712.587C858.175,718.706 852.302,730.544 843.5,740.104L834.451,733.992C827.186,703.393 841.862,697.349 859.324,679.429C860.241,678.488 868.106,659.646 870.149,655.635C868.625,646.561 858.835,652.55 852.105,649.396L852.155,647.862L856.003,644.708C852.767,644.476 854.261,645.828 850.506,644.623C849.989,641.958 850.531,641.643 851.655,639.035L855.895,637.09L862.792,634.733C863.394,629.966 866.603,629.559 870.745,627.485L870.937,625.767L867.848,622.454C875.502,621.077 882.136,620.935 889.908,620.581Z" style="fill:#8aeffa;fill-rule:nonzero;"/>
    </g>
    <g transform="matrix(1.009789,0,0,1.009789,-522.817186,-526.814813)">
        <path d="M889.908,620.581C893.134,621.48 896.333,621.948 898.727,624.127L898.383,625.59C895.253,627.166 894.556,627.228 891.231,628.088C880.255,629.457 873.357,631.234 862.792,634.733C863.394,629.966 866.603,629.559 870.745,627.485L870.937,625.767L867.848,622.454C875.502,621.077 882.136,620.935 889.908,620.581Z" style="fill:#8aeffa;fill-rule:nonzero;"/>
    </g>
    <g transform="matrix(1.009789,0,0,1.009789,-522.817186,-526.814813)">
        <path d="M862.792,634.733C873.357,631.234 880.255,629.457 891.231,628.088L891.061,629.062C874.986,634.376 870.596,635.633 856.003,644.708C852.767,644.476 854.261,645.828 850.506,644.623C849.989,641.958 850.531,641.643 851.655,639.035L855.895,637.09L862.792,634.733Z" style="fill:#196ecc;fill-rule:nonzero;"/>
    </g>
    <g transform="matrix(1.009789,0,0,1.009789,-522.817186,-526.814813)">
        <path d="M997.114,635.546L999.509,636.361C997.661,641.42 981.586,651.277 980.467,654.194C971.982,676.302 958.679,689.463 938.896,703.921L938.068,705.983L940.192,708.918C949.473,710.571 957.786,706.535 962.784,715.602C967.005,717.424 967.928,723.61 966.43,727.867C959.581,734.097 941.035,737.107 932.548,731.446C927.354,727.982 929.709,712.073 923.972,711.447C913.115,712.242 887.001,720.809 878.221,721.943C872.463,726.027 868.678,728.741 863.488,733.303C859.538,736.775 849.478,747.439 845.815,749.501L845.074,748.034C839.43,737.02 835.981,741.008 834.451,733.992L843.5,740.104C852.302,730.544 858.175,718.706 870.8,712.587C884.117,704.935 897.363,701.586 912.225,698.514C920.479,696.807 929.831,694.884 936.523,689.542C938.369,683.029 935.226,689.38 934.083,682.957C938.337,680.351 938.802,683.711 941.864,682.459C944.376,681.056 947.482,673.985 949.524,672.59C962.028,664.046 969.37,663.101 971.11,646.884C971.565,642.643 991.074,637.212 997.114,635.546Z" style="fill:#103ab2;fill-rule:nonzero;"/>
    </g>
    <g transform="matrix(1.009789,0,0,1.009789,-522.817186,-526.814813)">
        <path d="M870.8,712.587C876.514,712.585 881.68,709.071 886.926,706.971C890.56,705.515 891.474,708.866 892.492,708.582C903.681,705.456 919.047,703.743 929.694,700.654L930.372,701.229C922.653,709.621 920.113,705.424 912.231,707.769C904.86,709.962 883.274,717.379 878.221,721.943C872.463,726.027 868.678,728.741 863.488,733.303C859.538,736.775 849.478,747.439 845.815,749.501L845.074,748.034C839.43,737.02 835.981,741.008 834.451,733.992L843.5,740.104C852.302,730.544 858.175,718.706 870.8,712.587Z" style="fill:#1755c1;fill-rule:nonzero;"/>
    </g>
    <g transform="matrix(1.009789,0,0,1.009789,-522.817186,-526.814813)">
        <path d="M957.039,723.401C948.148,725.216 928.883,729.043 927.164,715.679C929.142,708.026 933.561,708.636 940.192,708.918C949.473,710.571 957.786,706.535 962.784,715.602C961.24,717.948 958.759,721.081 957.039,723.401Z" style="fill:#8aeffa;fill-rule:nonzero;"/>
    </g>
    <g transform="matrix(1.009789,0,0,1.009789,-522.817186,-526.814813)">
        <path d="M779.587,647.937C785.339,649.39 784.687,648.342 788.415,651.909L787.31,652.493C782.448,656.594 778.076,658.837 779.462,665.898L781.832,668.227C786.2,665.673 804.053,655.11 807.854,655.351C810.289,658.272 811.37,659.241 814.449,661.487C817.104,668.63 814.374,674.919 816.676,680.616C818.307,681.355 818.359,681.391 820.126,681.922L819.965,683.677L815.287,687.289C814.893,692.18 823.099,692.885 816.055,698.339C812.463,701.121 807.921,697.31 805.149,695.358L803.708,696.465C803.602,700.541 804.667,703.729 803.105,706.102C800.304,706.158 798.028,706.167 795.224,706.515C794.03,709.576 793.287,712.591 791.091,714.78C787.261,714.729 785.855,712.291 783.477,709.398C781.991,714.397 782.437,717.69 781.484,721.003C777.326,715.708 775.488,712.969 770.177,708.823C762.892,713.554 757.63,710.625 749.48,713.458L746.116,716.334L741.372,717.155L741.897,715.03C740.286,712.055 737.578,711.383 734.359,709.905L734.648,709.201C742.425,703.336 744.91,709.516 746.438,700.372L747.448,701.859C749.671,701.11 750.523,700.591 752.608,699.476L760.985,692.379C760.981,689.504 781.729,674.547 785.371,673.298L783.708,671.955C774.425,673.07 768.645,686.98 754.295,682.647L755.913,682.105C754.25,677.566 753.186,677.69 748.913,676.842C747.145,677.248 747.99,677.294 746.377,676.804L744.259,674.049C755.18,663.429 767.005,656.507 779.587,647.937Z" style="fill:#8aeffa;fill-rule:nonzero;"/>
    </g>
    <g transform="matrix(1.009789,0,0,1.009789,-522.817186,-526.814813)">
        <path d="M760.985,692.379C770.142,688.465 783.307,672.073 793.454,675.015C798.484,686.151 780.753,695.711 773.127,699.932C771.875,703.015 771.123,705.659 770.177,708.823C762.892,713.554 757.63,710.625 749.48,713.458L746.116,716.334L741.372,717.155L741.897,715.03C740.286,712.055 737.578,711.383 734.359,709.905L734.648,709.201C742.425,703.336 744.91,709.516 746.438,700.372L747.448,701.859C749.671,701.11 750.523,700.591 752.608,699.476L760.985,692.379Z" style="fill:#196ecc;fill-rule:nonzero;"/>
    </g>
    <g transform="matrix(1.009789,0,0,1.009789,-522.817186,-526.814813)">
        <path d="M779.587,647.937C785.339,649.39 784.687,648.342 788.415,651.909L787.31,652.493C782.448,656.594 778.076,658.837 779.462,665.898L781.832,668.227C775.621,673.845 770.118,680.376 762.1,681.461C759.639,680.624 759.621,680.472 757.476,678.93L755.913,682.105C754.25,677.566 753.186,677.69 748.913,676.842C747.145,677.248 747.99,677.294 746.377,676.804L744.259,674.049C755.18,663.429 767.005,656.507 779.587,647.937Z" style="fill:#77cbfb;fill-rule:nonzero;"/>
    </g>
    <g transform="matrix(1.009789,0,0,1.009789,-522.817186,-526.814813)">
        <path d="M778.872,654.436C782.865,652.761 783.067,652.602 787.31,652.493C782.448,656.594 778.076,658.837 779.462,665.898L781.832,668.227C775.621,673.845 770.118,680.376 762.1,681.461C759.639,680.624 759.621,680.472 757.476,678.93C762.239,670.992 772.932,670.257 777.855,662.018C778.273,657.721 778.78,659.568 776.739,656.176L778.872,654.436Z" style="fill:#2185dc;fill-rule:nonzero;"/>
    </g>
    <g transform="matrix(1.009789,0,0,1.009789,-522.817186,-526.814813)">
        <path d="M776.739,656.176C778.78,659.568 778.273,657.721 777.855,662.018C772.932,670.257 762.239,670.992 757.476,678.93L755.913,682.105C754.25,677.566 753.186,677.69 748.913,676.842C758.223,670.205 767.925,663.436 776.739,656.176Z" style="fill:#8aeffa;fill-rule:nonzero;"/>
    </g>
    <g transform="matrix(1.009789,0,0,1.009789,-522.817186,-526.814813)">
        <path d="M746.377,676.804C751.301,671.381 770.576,657.867 777.225,653.777L778.872,654.436L776.739,656.176C767.925,663.436 758.223,670.205 748.913,676.842C747.145,677.248 747.99,677.294 746.377,676.804Z" style="fill:#29a1eb;fill-rule:nonzero;"/>
    </g>
    <g transform="matrix(1.009789,0,0,1.009789,-522.817186,-526.814813)">
        <path d="M833.239,646.648C839.423,644.223 845.563,641.685 851.655,639.035C850.531,641.643 849.989,641.958 850.506,644.623C854.261,645.828 852.767,644.476 856.003,644.708L852.155,647.862L852.105,649.396C858.835,652.55 868.625,646.561 870.149,655.635C851.231,654.336 835.087,657.438 818.031,666.536L817.477,667.802C821.958,674.996 825.093,666.418 824.76,678.898L826.098,679.425L829.325,677.7L830.773,678.202C831.243,682.507 826.009,702.68 823.949,704.621C809.391,717.872 791.636,721.411 781.42,739.838C774.234,752.799 779.261,764.104 776.754,776.016C774.318,787.594 765.57,802.625 764.826,815.726C764.737,817.275 763.316,818.432 762.163,819.234L760.23,812.815C758.328,802.207 748.589,803.953 741.833,808.791L742.562,806.44L739.017,803.875C744.76,802.012 745.127,800.907 749.51,796.5C741.09,795.383 735.463,797.021 727.586,795.885C723.205,795.234 717.686,796.72 715.368,792.434C721.76,788.648 729.585,791.087 735.958,793.334C748.486,786.366 759.335,790.544 763.668,786.633L762.02,785.381L773.613,778.901C768.275,754.092 765.234,753.008 779.105,729.779C768.399,735.546 765.256,736.62 754.616,743.49C756.88,738.339 759.969,732.751 762.59,727.711C763.864,722.89 764.434,721.585 762.505,717.572C758.809,714.695 754.239,714.376 749.48,713.458C757.63,710.625 762.892,713.554 770.177,708.823C775.488,712.969 777.326,715.708 781.484,721.003C782.437,717.69 781.991,714.397 783.477,709.398C785.855,712.291 787.261,714.729 791.091,714.78C793.287,712.591 794.03,709.576 795.224,706.515C798.028,706.167 800.304,706.158 803.105,706.102C804.667,703.729 803.602,700.541 803.708,696.465L805.149,695.358C807.921,697.31 812.463,701.121 816.055,698.339C823.099,692.885 814.893,692.18 815.287,687.289L819.965,683.677L820.126,681.922C818.359,681.391 818.307,681.355 816.676,680.616C814.374,674.919 817.104,668.63 814.449,661.487C811.37,659.241 810.289,658.272 807.854,655.351L808.874,653.585C813.206,654.246 819.744,656.075 823.374,654.843C825.396,652.055 824.701,653.667 824.632,649.53C828.698,649.655 829.518,648.761 833.239,646.648Z" style="fill:#2185dc;fill-rule:nonzero;"/>
    </g>
    <g transform="matrix(1.009789,0,0,1.009789,-522.817186,-526.814813)">
        <path d="M761.873,789.925C761.434,795.141 761.014,809.149 760.23,812.815C758.328,802.207 748.589,803.953 741.833,808.791L742.562,806.44C748.603,800.645 754.739,794.194 761.873,789.925Z" style="fill:#8aeffa;fill-rule:nonzero;"/>
    </g>
    <g transform="matrix(1.009789,0,0,1.009789,-522.817186,-526.814813)">
        <path d="M801.135,644.762C800.217,644.654 800.528,644.871 800.083,644.331C802.884,642.358 802.78,642.301 806.003,641.279L806.875,642.25L804.783,647.212L805.703,648.539C811.151,647.424 814.856,633.751 826.542,630.66C839.765,627.162 852.22,624.289 865.772,621.425C867.031,618.968 867.162,618.682 868.882,616.547C880.641,613.743 891.565,610.025 902.712,607.343C942.911,597.56 982.374,590.522 1023.87,593.298C1038.2,594.257 1047.58,596.462 1061.51,599.025C1070.81,600.737 1084.09,595.387 1094.09,596.474C1092.85,597.162 1063.38,600.637 1061.1,600.209C1053.14,598.719 1044.97,596.631 1036.73,596.212C1008.45,594.774 979.833,594.538 951.835,599.172C939.362,601.444 885.755,609.539 881.77,618.237C884.932,620.693 885.23,619.969 889.908,620.581C882.136,620.935 875.502,621.077 867.848,622.454L870.937,625.767L870.745,627.485C866.603,629.559 863.394,629.966 862.792,634.733L855.895,637.09L851.655,639.035C845.563,641.685 839.423,644.223 833.239,646.648C829.518,648.761 828.698,649.655 824.632,649.53L821.633,647.015C816.449,647.676 809.525,648.253 804.99,650.635L801.135,644.762Z" style="fill:#77cbfb;fill-rule:nonzero;"/>
    </g>
    <g transform="matrix(1.009789,0,0,1.009789,-522.817186,-526.814813)">
        <path d="M867.848,622.454L870.937,625.767L870.745,627.485C866.603,629.559 863.394,629.966 862.792,634.733L855.895,637.09C843.325,634.714 841.258,635.711 828.727,638.612L823.506,641.554C819.525,643.836 819.632,644.216 815.068,644.548L814,643.617C816.207,638.961 820.34,636.501 824.631,634.065C842.014,628.133 851.652,627.045 867.848,622.454Z" style="fill:#8aeffa;fill-rule:nonzero;"/>
    </g>
    <g transform="matrix(1.009789,0,0,1.009789,-522.817186,-526.814813)">
        <path d="M821.633,647.015C825.245,643.258 830.358,640.268 835.577,639.706L836.979,640.924C835.847,643.85 835.236,644.262 833.239,646.648C829.518,648.761 828.698,649.655 824.632,649.53L821.633,647.015Z" style="fill:#8aeffa;fill-rule:nonzero;"/>
    </g>
    <g transform="matrix(1.009789,0,0,1.009789,-522.817186,-526.814813)">
        <path d="M1250.15,654.061C1253.23,655.962 1253.37,656.196 1256.96,657.261L1257.57,658.277C1259.41,662.59 1259.97,661.833 1258.73,664.978C1255.41,666.696 1253.73,666.6 1250.06,666.973C1250.23,669.452 1250.43,668.942 1251.88,671.405L1251.38,673.224L1249.55,673.782C1247.93,672.597 1246.29,671.422 1244.65,670.258L1242.61,670.686C1242.43,675.225 1246.94,677.911 1250.26,680.652L1249.5,679.895L1250.32,682.027C1248.04,682.444 1245.96,682.158 1244.02,682.533C1240.58,683.995 1240.63,683.296 1239.05,685.929C1237.36,682.6 1237.05,681.114 1233.72,679.501C1226.95,679.881 1225.11,685.584 1226.79,691.29C1226.26,694.884 1226.38,695.114 1224.78,698.51C1219.43,698.165 1211.83,696.557 1206.34,695.561L1205.76,696.297C1197.14,696.106 1199.29,695.263 1192.02,692.852L1190.56,692.379C1184.21,692.118 1182.07,693.044 1177.95,688.21C1176.88,684.133 1177.68,681.39 1178.33,677.155L1176.82,675.921C1178.29,671.749 1178.99,666.029 1183.06,664.256C1194.23,659.38 1207.05,659.744 1216.43,667.886L1216.71,669.133C1213.42,668.77 1212.83,668.718 1209.51,667.756C1208.36,675.741 1206.31,684.357 1206.83,692.161C1208.28,693.958 1207.45,693.546 1208.96,693.965L1220.03,696.601C1225.63,693.802 1224.96,684.331 1226.89,678.951C1232.1,676.013 1228.99,679.444 1234.9,677.374C1238.26,665.437 1255.56,669.219 1250.15,654.061Z" style="fill:#1755c1;fill-rule:nonzero;"/>
    </g>
    <g transform="matrix(1.009789,0,0,1.009789,-522.817186,-526.814813)">
        <path d="M1181.78,666.608C1189.79,663.855 1199.43,662.23 1207.85,661.342C1194.84,669.936 1183.69,674.538 1190.56,692.379C1184.21,692.118 1182.07,693.044 1177.95,688.21C1176.88,684.133 1177.68,681.39 1178.33,677.155C1179.42,673.471 1180.34,670.184 1181.78,666.608Z" style="fill:#77cbfb;fill-rule:nonzero;"/>
    </g>
    <g transform="matrix(1.009789,0,0,1.009789,-522.817186,-526.814813)">
        <path d="M965.87,772.22C966.901,766.805 976.051,757.373 981.974,757.683L983.04,760.117C980.659,771.735 992.226,790.34 999.169,799.577C985.959,806.292 981.528,805.105 969.812,809.29C966.905,808.969 967.088,809.072 964.696,807.411C968.123,803.828 968.904,801.512 971.013,797.118C968.217,792.173 966.717,792.933 961.731,792.587L966.366,784.78L965.324,783.945C966.818,779.994 965.458,777.479 965.87,772.22Z" style="fill:#8aeffa;fill-rule:nonzero;"/>
    </g>
    <g transform="matrix(1.009789,0,0,1.009789,-522.817186,-526.814813)">
        <path d="M965.87,772.22C977.119,778.892 973.46,785.924 971.013,797.118C968.217,792.173 966.717,792.933 961.731,792.587L966.366,784.78L965.324,783.945C966.818,779.994 965.458,777.479 965.87,772.22Z" style="fill:#196ecc;fill-rule:nonzero;"/>
    </g>
    <g transform="matrix(1.009789,0,0,1.009789,-522.817186,-526.814813)">
        <path d="M715.028,821.846C719.952,818.914 724.435,808.379 731.223,803C734.267,801.878 735.875,802.844 739.017,803.875L742.562,806.44L741.833,808.791C748.589,803.953 758.328,802.207 760.23,812.815L762.163,819.234L760.695,820.402L759.313,821.966C747.133,820.102 727.137,831.504 718.152,825.105C719.976,823.637 719.526,824.54 719.847,822.598L715.028,821.846Z" style="fill:#2185dc;fill-rule:nonzero;"/>
    </g>
    <g transform="matrix(1.009789,0,0,1.009789,-522.817186,-526.814813)">
        <path d="M741.833,808.791C748.589,803.953 758.328,802.207 760.23,812.815L762.163,819.234L760.695,820.402L759.05,818.76C758.699,816.507 758.753,816.639 757.603,814.674C753.44,814.168 744.279,812.265 741.833,808.791Z" style="fill:#a7fbfc;fill-rule:nonzero;"/>
    </g>
    <g transform="matrix(1.009789,0,0,1.009789,-522.817186,-526.814813)">
        <path d="M946.754,799.731L945.407,799.264C942.049,795.421 948.737,775.791 959.91,776.742C963.172,778.352 963.712,780.592 965.324,783.945L966.366,784.78L961.731,792.587C957.914,796.413 952.165,797.367 946.754,799.731Z" style="fill:#8aeffa;fill-rule:nonzero;"/>
    </g>
    <g transform="matrix(1.009789,0,0,1.009789,-522.817186,-526.814813)">
        <path d="M1250.15,654.061C1252.13,653.678 1252.32,653.781 1254.03,652.715C1250.6,641.393 1191.22,631.244 1178.44,629.615C1198.56,628.984 1255.85,643.865 1273.15,656.835C1276.01,658.976 1278.93,661.035 1282.26,662.939L1281.78,664.401C1272.87,661.653 1266.87,659.675 1257.57,658.277L1256.96,657.261C1253.37,656.196 1253.23,655.962 1250.15,654.061Z" style="fill:#196ecc;fill-rule:nonzero;"/>
    </g>
    <g transform="matrix(1.009789,0,0,1.009789,-522.817186,-526.814813)">
        <path d="M961.731,792.587C966.717,792.933 968.217,792.173 971.013,797.118C968.904,801.512 968.123,803.828 964.696,807.411L961.706,806.604C957.637,807.335 957.081,808.331 953.793,811.276L952.747,812.228C946.821,809.172 947.089,805.185 944.105,800.47L946.754,799.731C952.165,797.367 957.914,796.413 961.731,792.587Z" style="fill:#1755c1;fill-rule:nonzero;"/>
    </g>
    <g transform="matrix(1.009789,0,0,1.009789,-522.817186,-526.814813)">
        <path d="M1026.96,789.459L1024.67,788.948C1019.59,781.861 1013.73,754.486 1015.88,746.41L1016.97,746.728C1016.85,749.035 1017.16,750.125 1017.77,752.354L1019.57,764.341C1022.23,770.893 1025.54,771.63 1032.13,772.23C1029.74,778.192 1029.98,781.895 1029.77,788.28L1026.96,789.459Z" style="fill:#196ecc;fill-rule:nonzero;"/>
    </g>
    <g transform="matrix(1.009789,0,0,1.009789,-522.817186,-526.814813)">
        <path d="M983.04,760.117L988.167,760.754C980.105,768.966 989.728,782.395 995.368,789.444C1002.57,787.348 1002.13,792.646 1009.98,793.757C1014.16,792.326 1015.36,790.02 1019.57,788.685C1020.99,789.493 1020.66,788.927 1020.97,790.06C1011.67,794.236 1009.73,795.842 1002.95,803.417C1001.85,801.705 1000.72,800.953 999.169,799.577C992.226,790.34 980.659,771.735 983.04,760.117Z" style="fill:#196ecc;fill-rule:nonzero;"/>
    </g>
    <g transform="matrix(1.009789,0,0,1.009789,-522.817186,-526.814813)">
        <path d="M1063.78,651.52L1064.29,647.009C1068.31,643.106 1083.8,643.867 1088.92,645.697C1093.09,646.659 1097.66,648.102 1100.24,651.784C1098.82,657.103 1090.46,656.941 1085.99,662.057C1085.81,664.456 1086.26,665.796 1086.76,668.158L1085.68,669.707C1083.5,665.613 1084.04,664.686 1080.66,663.127L1078.53,663.837L1078.19,664.796C1075.24,672.997 1069.42,675.165 1061.07,675.418C1057.73,673.693 1057.9,673.546 1055.99,670.462C1056.04,668.882 1055.82,668.25 1056.44,667.047C1056.88,664.325 1057.36,663.34 1056.35,660.828C1055.29,660.036 1054.25,659.215 1053.24,658.366C1051.01,656.468 1048.38,653.95 1048.13,650.962C1053.01,647.044 1058.95,648.518 1063.78,651.52Z" style="fill:#196ecc;fill-rule:nonzero;"/>
    </g>
    <g transform="matrix(1.009789,0,0,1.009789,-522.817186,-526.814813)">
        <path d="M1063.78,651.52L1064.29,647.009C1068.31,643.106 1083.8,643.867 1088.92,645.697C1080.8,658.017 1079.8,648.722 1073.7,652.988C1077.17,657.465 1081.18,658.21 1082.41,661.89C1074.17,662.02 1075.47,659.336 1069.94,655.663L1067.27,657.577C1066.3,655.112 1065.23,653.7 1063.78,651.52Z" style="fill:#8aeffa;fill-rule:nonzero;"/>
    </g>
    <g transform="matrix(1.009789,0,0,1.009789,-522.817186,-526.814813)">
        <path d="M1056.44,667.047C1056.88,664.325 1057.36,663.34 1056.35,660.828C1055.29,660.036 1054.25,659.215 1053.24,658.366C1051.01,656.468 1048.38,653.95 1048.13,650.962C1053.01,647.044 1058.95,648.518 1063.78,651.52C1065.23,653.7 1066.3,655.112 1067.27,657.577C1065.3,661.404 1064.08,664.991 1060.6,667.235C1058.63,667.267 1058.37,667.356 1056.44,667.047Z" style="fill:#8aeffa;fill-rule:nonzero;"/>
    </g>
    <g transform="matrix(1.009789,0,0,1.009789,-522.817186,-526.814813)">
        <path d="M575.481,1081.35C577.622,1070.33 579.627,1061.16 576.131,1050.42C588.721,1030.5 609.437,1045.66 620.885,1058.35C635.955,1060.4 633.585,1067.86 643.735,1076.29C665.473,1094.36 668.162,1095.87 674.045,1122.96C678.674,1125.99 681.719,1126.45 682.725,1132.16C685.746,1132.02 684.656,1132.16 687.574,1130.87C693.704,1133.52 698.253,1140.24 703.725,1143C713.757,1148.04 724.558,1151.82 734.438,1157.22C751.553,1166.56 764.81,1169.29 769.676,1189.97C761.595,1223.62 750.003,1207.97 752.9,1251.92C752.161,1259.03 751.893,1279.56 747.102,1282.67C740.028,1287.26 731.781,1289.66 724.327,1295.39C725.096,1304.12 728.171,1310.93 728.671,1315.78C728.487,1319.78 729.949,1321.29 727.921,1324.94C717.954,1342.9 735.488,1353.32 733.929,1364.92C731.337,1367.68 732.846,1366.93 729.479,1367.66C716.056,1354.91 702.965,1344.46 689.675,1330.61C678.797,1319.26 659.317,1288.86 650.305,1282.06C614.115,1228.97 578.8,1146 575.481,1081.35Z" style="fill:#768af9;fill-rule:nonzero;"/>
    </g>
    <g transform="matrix(1.009789,0,0,1.009789,-522.817186,-526.814813)">
        <path d="M601.434,909.97C601.736,908.937 603.308,903.708 603.86,903.072C629.09,873.996 657.227,840.483 694.071,826.263C696.177,825.451 696.504,825.482 697.983,826.388C697.568,828.053 697.249,829.222 696.711,830.872L696.24,832.282C699.127,832.728 700.041,831.638 703.256,830.231C709.646,830.104 711.888,829.998 717.129,826.423L718.371,828.661C715.454,834.015 688.429,843.516 682.073,846.788C670.689,852.648 658.472,864.267 649.499,873.511C649.245,902.726 653.821,928.095 662.044,955.983C664.069,962.852 665.957,972.049 670.866,977.383C685.496,983.479 798.472,981.613 820.853,980.57C831.081,980.094 837.616,962.709 845.437,961.156C838.877,963.61 794.624,1018.72 780.629,1023.46C783.894,1018.54 818.04,986.644 824.136,981.59C795.917,980.719 767.047,983.093 738.701,982.556C715.779,982.121 692.592,984.502 669.734,980.124C660.783,974.059 653.02,922.518 650.99,909.585C650.263,904.952 648.439,884.273 647.197,881.49L645.775,881.57C640.748,885.847 631.495,893.302 628.669,899.161C622.812,897.419 627.921,902.188 623.322,904.431C620.084,906.01 611.914,913.029 609.385,913.505C609.887,909.7 626.367,890.025 630.255,882.897C627.557,884.466 606.755,906.695 603.527,910.185L601.434,909.97Z" style="fill:#1755c1;fill-rule:nonzero;"/>
    </g>
    <g transform="matrix(1.009789,0,0,1.009789,-522.817186,-526.814813)">
        <path d="M907.388,1110.54C916.217,1113.74 917.143,1110.04 926.572,1108.81C933.605,1107.88 945.296,1111.02 951.573,1110.35C970.025,1108.38 985.607,1093.07 998.882,1116.43L997.655,1118.02C1001.02,1122.53 1012.48,1121.77 1018.79,1123.32C1014.25,1125.21 1014.41,1124.87 1009.43,1125.17C1008.78,1126.81 1008.18,1128.35 1007.6,1130.02L1007.18,1131.23C1006.62,1128.09 1007.08,1127.39 1005.25,1125.52L999.922,1125.52C992.007,1120.35 987.619,1121.89 980.948,1117.83C983.829,1116.3 986.306,1116.4 989.717,1115.96C984.68,1113.5 979.067,1109.39 974.171,1112.69L974.173,1112.55C975.79,1113.36 977.151,1114.09 978.729,1114.96L978.485,1116.17C974.969,1114.66 974.978,1114.44 971.004,1114.46C971.454,1114.7 972.632,1115.37 973.06,1115.51L970.936,1114.11L970.828,1116.68C960.708,1117.35 950.045,1119.36 940.022,1119.15L941.797,1117.53C935.599,1115.47 919.384,1121.39 913.566,1116.51C915.365,1114.06 916.03,1114.42 919.294,1113.03C916.403,1113.34 914.787,1113.9 912.043,1114.71C909.017,1113.6 907.976,1113.61 907.388,1110.54Z" style="fill:#103ab2;fill-rule:nonzero;"/>
    </g>
    <g transform="matrix(1.009789,0,0,1.009789,-522.817186,-526.814813)">
        <path d="M769.676,1189.97C772.318,1196.6 766.909,1202.11 768.86,1203.59L772.011,1198.67C774.644,1209.52 762.225,1223.35 759.724,1233.37C758.068,1240.01 761.67,1253.05 757.383,1259C754.176,1253.93 758.134,1245.09 756.714,1239.27C755.443,1246.61 754.83,1257.32 753.308,1263.29C752.279,1286.33 748.424,1286.21 735.831,1305.08C733.385,1308.74 733.84,1317.08 732.543,1322.36L728.671,1315.78C728.171,1310.93 725.096,1304.12 724.327,1295.39C731.781,1289.66 740.028,1287.26 747.102,1282.67C751.893,1279.56 752.161,1259.03 752.9,1251.92C750.003,1207.97 761.595,1223.62 769.676,1189.97Z" style="fill:#251592;fill-rule:nonzero;"/>
    </g>
    <g transform="matrix(1.009789,0,0,1.009789,-522.817186,-526.814813)">
        <path d="M575.086,963.132C579.396,962.12 578.963,961.433 581.936,962.973C584.02,966.292 583.517,967.778 583.06,971.852C590.88,981.841 600.896,979.364 597.638,993.907L594.28,993.526C593.406,995.543 592.932,995.207 590.497,996.891C588.417,994.324 589.051,993.625 588.656,989.661L589.39,988.81C587.335,983.562 578.492,976.53 572.625,975.61C573.232,971.728 574.302,967.057 575.086,963.132Z" style="fill:#9ab8fc;fill-rule:nonzero;"/>
    </g>
    <g transform="matrix(1.009789,0,0,1.009789,-522.817186,-526.814813)">
        <path d="M601.211,993.931C603.742,992.865 603.582,992.973 606.346,993.214C611.442,996.467 613.086,998.766 615.77,1004.22C613.098,1010.05 579.79,1006.01 588.656,989.661C589.051,993.625 588.417,994.324 590.497,996.891C592.932,995.207 593.406,995.543 594.28,993.526L597.638,993.907L600.477,994.826L601.211,993.931Z" style="fill:#1755c1;fill-rule:nonzero;"/>
    </g>
    <g transform="matrix(1.009789,0,0,1.009789,-522.817186,-526.814813)">
        <path d="M601.211,993.931C606.207,994.337 613.163,999.288 613.88,1004.06C609.761,1007.65 602.721,1003.26 598.669,1000.78C595.849,1003.19 597.402,1002.54 593.987,1003.11L592.81,1001.98C594.912,998.172 597.835,998.375 600.477,994.826L601.211,993.931Z" style="fill:#9ab8fc;fill-rule:nonzero;"/>
    </g>
    <g transform="matrix(1.009789,0,0,1.009789,-522.817186,-526.814813)">
        <path d="M1276.7,994.925C1275.19,992.709 1272.64,988.505 1271.76,986.095C1268.4,976.931 1238.36,958.854 1250.77,948.077C1265.18,948.491 1272.11,978.436 1294.06,969.909L1295.62,969.294C1300.27,970.83 1299.78,973.028 1303.99,977.258C1310.92,984.234 1326.27,979.758 1335.49,980.456C1356.34,982.033 1356.84,997.38 1366.71,1007.33C1371.3,1008.07 1373.78,1007.75 1378.4,1007.48C1379,1011.32 1380.87,1026.14 1381.68,1028.7C1385.84,1041.75 1391.98,1056.67 1397.14,1069.43C1401.14,1079.32 1406.75,1087.46 1409.29,1097.95C1424.45,1079 1421.77,1065.36 1421.95,1041.78C1428.73,1032.78 1442.73,1017.37 1446.51,1007.17C1448.21,1002.57 1447.06,1001.97 1451.16,997.727C1461.13,993.766 1472.05,1020.75 1477.78,1029.07C1479.43,1041.04 1476.79,1067.66 1475.26,1080.11C1465.72,1159.73 1435.11,1235.36 1386.59,1299.2C1286.93,1430.54 1123.11,1506.1 959,1478.64C946.703,1476.58 934.186,1475.01 922.202,1471.43C918.954,1468.89 885.334,1459.88 877.5,1456.91C860.804,1450.58 846.422,1446.07 830.489,1436.53C835.639,1433.87 843.789,1428.5 849.136,1425.25C851.304,1425.2 851.929,1425.89 853.937,1426.8C866.627,1423.87 861.555,1407.72 868.712,1403.25C871.488,1403.67 870.505,1403.7 873.308,1403.21C874.99,1399.65 876.349,1396.06 877.798,1392.4C880.762,1390.79 884.392,1391.51 888.245,1391.6C890.807,1386.76 888.105,1382.24 891.091,1378.55C895.088,1377.17 896.564,1380.25 899.584,1378.69C899.575,1375.12 899.355,1373.76 900.562,1370.35C906.991,1366.79 916.478,1376.2 924.021,1376.75C924.022,1376.75 931.011,1374.94 931.515,1374.8C933.822,1377.74 934.625,1379.48 938.286,1379.35L939.023,1376.1C942.284,1375.49 941.469,1375.85 945.213,1377.83C948.735,1377.45 955.561,1372.76 959.1,1370.66C961.884,1371.36 963.725,1372.13 966.5,1371.5C969.287,1363.29 959.999,1356.73 971.848,1349.58C976.261,1350.83 975.734,1354.94 979.612,1356.38C984.97,1348.47 985.466,1350.15 995.388,1347.51L994.52,1345.01C994.694,1344.36 994.867,1343.7 995.04,1343.05C1009.53,1338.4 1027.29,1337.13 1036.34,1322.36C1039.79,1316.74 1027.12,1294.77 1024.8,1284.69C1027.53,1279.94 1031.76,1274.78 1035.14,1270.35C1034.11,1267.16 1033.56,1266.24 1034.45,1262.83C1043.18,1283.24 1045.77,1296.64 1051.4,1318.01C1052.92,1323.8 1060.2,1335.35 1062.55,1342.24C1064.99,1349.4 1066.53,1360.84 1070.54,1366.64C1076.55,1366.74 1108.37,1361.4 1113.92,1358.16C1125.33,1351.52 1143.68,1329.61 1151.66,1318.08C1152.76,1316.5 1154.63,1309.64 1155.25,1307.38C1173.57,1296.66 1170.69,1294.53 1168.6,1273.4C1179.81,1259.8 1190.96,1256.37 1204.23,1246.21C1209.95,1222.81 1205.3,1207.82 1200.38,1185.09C1207.18,1161.36 1228.24,1143.95 1245.53,1128.19C1254.49,1120.02 1277.09,1085.88 1273.38,1073.75C1269.8,1072.18 1268.93,1073.2 1264.21,1074.02C1258.52,1076.73 1246.1,1079.54 1239.96,1080.89C1231.96,1074.89 1195.86,1033.81 1194.16,1025.99C1188.83,1001.58 1176.04,985.716 1165.31,963.122C1168.35,960.112 1169.15,958.868 1171.62,955.304C1175.81,959.859 1176.84,963.086 1180.23,967.831C1189.53,980.835 1197.7,994.565 1205.51,1008.45C1208.69,1014.13 1225.86,1036.08 1226.83,1040.48C1229.29,1051.6 1227.36,1055.5 1232.54,1069.32C1241.39,1064.09 1254.8,1059.45 1264.45,1054.61C1272.94,1050.36 1283.44,1043.92 1291.77,1040.61C1295.62,1036.84 1295.03,1033.14 1295.21,1027.73C1309.31,1019.17 1310.93,1018.76 1317.28,1003.23C1304.49,991.695 1304.99,998.656 1294.4,979.779C1288.13,988.422 1285.66,989.685 1276.7,994.925Z" style="fill:#251592;fill-rule:nonzero;"/>
    </g>
    <g transform="matrix(1.009789,0,0,1.009789,-522.817186,-526.814813)">
        <path d="M1254.32,1228.66L1256.19,1229.88C1263.57,1244.85 1243.17,1275.04 1237.46,1289.5C1233.72,1298.99 1227.72,1309.02 1216.44,1309.15C1204.7,1296.23 1216.96,1281.75 1220.07,1267.42C1221.15,1262.44 1222.11,1257.72 1223.59,1252.82C1227.84,1249.97 1232.23,1247.94 1236.45,1244.77C1242.99,1239.85 1248.16,1234.15 1254.32,1228.66Z" style="fill:#768af9;fill-rule:nonzero;"/>
    </g>
    <g transform="matrix(1.009789,0,0,1.009789,-522.817186,-526.814813)">
        <path d="M1421.23,1090.63C1425.83,1095.37 1426.77,1105.67 1421.85,1111.08C1413.81,1104.84 1416.71,1097.91 1421.23,1090.63Z" style="fill:#768af9;fill-rule:nonzero;"/>
    </g>
    <g transform="matrix(1.009789,0,0,1.009789,-522.817186,-526.814813)">
        <path d="M1469.72,1092.81L1470.78,1094.48C1470.49,1102.35 1469.24,1108.11 1466.75,1115.47C1461.63,1111.19 1467.64,1097.96 1469.72,1092.81Z" style="fill:#768af9;fill-rule:nonzero;"/>
    </g>
    <g transform="matrix(1.009789,0,0,1.009789,-522.817186,-526.814813)">
        <path d="M1176.82,675.921L1178.33,677.155C1177.68,681.39 1176.88,684.133 1177.95,688.21C1182.07,693.044 1184.21,692.118 1190.56,692.379L1192.02,692.852C1199.29,695.263 1197.14,696.106 1205.76,696.297L1206.34,695.561C1211.83,696.557 1219.43,698.165 1224.78,698.51C1232.26,700.336 1232.78,700.695 1239.61,704.426L1241.23,706.347C1240.35,714.125 1239.48,734.589 1236.69,740.449L1235.71,740.962C1234.5,741.615 1231.12,743.42 1230.54,744.478C1220.56,762.738 1206.24,777.043 1194.13,793.739C1193.33,794.837 1191.07,795.67 1189.9,796.151C1182.88,805.064 1187.68,827.445 1174.7,841.539C1175.62,851.092 1207.56,859.817 1199.54,871.091C1191.6,882.249 1176.12,867.91 1163.68,873.909C1161.67,877.336 1163.81,878.567 1163.41,880.085C1161.72,886.466 1153.71,895.328 1149.55,900.387C1150.63,903.514 1151.41,903.764 1153.9,905.967C1160.97,906.311 1175.61,892.862 1177.93,907.063L1177.19,906.992L1176.53,905.274L1175.75,909.777C1169.31,942.336 1170.81,949.757 1133.06,942.832C1129.1,942.107 1124.88,940.661 1121.04,939.491C1098.51,929.723 1092.5,922.803 1085.79,950.149C1072.24,942.771 1059.89,935.176 1045.77,928.865C1041.23,926.834 1034.12,923.418 1032.53,918.668C1049.21,889.649 1001.13,900.644 986.143,902.12L985.503,897.717C986.868,893.92 987.01,892.732 984.988,889.476C980.347,888.264 974.856,890.554 971.711,894.066C960.837,899.816 950.612,897.286 946.397,902.033L945.924,902.014C938.218,893.942 930.358,896.045 926.151,888.883C925.599,882.097 932.885,857.137 935.04,849.757C945.142,849.096 954.019,850.585 963.963,850.737C977.994,850.951 975.424,838.843 974.378,829.964C970.912,826.066 970.237,825.376 965.889,822.533L964.716,822.157L964.051,820.596C966.625,817.064 970.248,818.497 974.307,814.3C972.61,811.946 973.656,812.958 970.568,811.832L969.812,809.29C981.528,805.105 985.959,806.292 999.169,799.577C1000.72,800.953 1001.85,801.705 1002.95,803.417C1009.73,795.842 1011.67,794.236 1020.97,790.06C1023.82,790.175 1024.12,790.026 1026.96,789.459L1029.77,788.28C1029.98,781.895 1029.74,778.192 1032.13,772.23C1025.54,771.63 1022.23,770.893 1019.57,764.341L1017.77,752.354C1017.46,738.478 1020.82,739.323 1033.12,732.229C1049.89,722.559 1056.68,703.116 1073.31,693.319C1079.48,689.685 1097.11,687.695 1104.49,689.257C1116.89,694.079 1125.62,698.172 1139.04,701.915L1140.86,702.411C1147.62,701.526 1155.37,708.577 1161.2,702.275C1180.88,699.616 1173.92,692.408 1176.62,676.978L1176.82,675.921Z" style="fill:#77cbfb;fill-rule:nonzero;"/>
    </g>
    <g transform="matrix(1.009789,0,0,1.009789,-522.817186,-526.814813)">
        <path d="M1070.38,885.36L1070.84,884.316C1080.55,861.742 1043.79,856.514 1047.85,841.321L1049.73,840.353C1052.31,841.449 1077.23,861.425 1080.61,864.716C1085.48,869.455 1091.02,893.929 1100.63,897.68L1102.25,896.797C1104.38,889.128 1103.85,883.817 1105.26,876.466C1109.86,875.723 1114.43,874.374 1118.12,877.268C1126.49,883.825 1124.88,903.816 1137.57,906.995C1140.59,904.808 1142.34,903.019 1146,902.631C1149.58,903.513 1151.01,905.74 1153.59,908.506C1161.92,905.74 1169.47,898.542 1176.53,905.274L1175.75,909.777C1169.31,942.336 1170.81,949.757 1133.06,942.832C1129.1,942.107 1124.88,940.661 1121.04,939.491C1098.51,929.723 1092.5,922.803 1085.79,950.149C1072.24,942.771 1059.89,935.176 1045.77,928.865C1041.23,926.834 1034.12,923.418 1032.53,918.668C1049.21,889.649 1001.13,900.644 986.143,902.12L985.503,897.717C986.868,893.92 987.01,892.732 984.988,889.476C980.347,888.264 974.856,890.554 971.711,894.066C973.452,885.312 976.749,885.171 984.277,880.638C984.454,878.773 984.961,873.459 985.585,871.915C988.126,865.624 1000.4,857.29 1006.57,854.793C1013.41,853.872 1018.36,854.014 1025.25,854.063L1032.87,846.437C1041.25,860.709 1045.04,863.368 1058.21,873.229C1062.44,876.113 1067.4,878.876 1069.56,883.478L1070.38,885.36Z" style="fill:url(#_Linear1);fill-rule:nonzero;"/>
    </g>
    <g transform="matrix(1.009789,0,0,1.009789,-522.817186,-526.814813)">
        <path d="M984.277,880.638C984.454,878.773 984.961,873.459 985.585,871.915C988.126,865.624 1000.4,857.29 1006.57,854.793L1017.06,855.522C1013.03,856.018 1010.99,856.083 1006.91,856.095C1004.11,858.172 1000.84,860.236 998.97,863.067C1005.47,860.831 1005.95,857.607 1013.49,858.121C1019.78,858.549 1022.43,859.437 1028.29,861.387C1029.33,863.35 1029.21,862.454 1029.19,863.949L1028.49,864.864L1027.33,868.522L1026.05,865.47C993.808,862.082 999.335,875.961 985.503,897.717C986.868,893.92 987.01,892.732 984.988,889.476C980.347,888.264 974.856,890.554 971.711,894.066C973.452,885.312 976.749,885.171 984.277,880.638Z" style="fill:#103ab2;fill-rule:nonzero;"/>
    </g>
    <g transform="matrix(1.009789,0,0,1.009789,-522.817186,-526.814813)">
        <path d="M1153.59,908.506C1161.92,905.74 1169.47,898.542 1176.53,905.274L1175.75,909.777C1171.73,909.282 1176.64,909.661 1172.9,904.907C1168.57,903.923 1159.45,907.59 1156.15,910.232C1160.62,912.056 1163.07,909.892 1166.79,911.04C1158.54,913.254 1143.41,914.348 1137.57,906.995C1140.59,904.808 1142.34,903.019 1146,902.631C1149.58,903.513 1151.01,905.74 1153.59,908.506Z" style="fill:#251592;fill-rule:nonzero;"/>
    </g>
    <g transform="matrix(1.009789,0,0,1.009789,-522.817186,-526.814813)">
        <path d="M1069.56,883.478L1070.38,885.36C1066.27,892.191 1053.24,901.583 1047.26,892.502L1047.96,891.243C1053.45,889.76 1055.38,893.165 1059.13,889.763L1069.56,883.478Z" style="fill:#77cbfb;fill-rule:nonzero;"/>
    </g>
    <g transform="matrix(1.009789,0,0,1.009789,-522.817186,-526.814813)">
        <path d="M1058.21,873.229C1062.44,876.113 1067.4,878.876 1069.56,883.478L1059.13,889.763C1058.28,887.719 1058.77,877.604 1058.21,873.229Z" style="fill:#103ab2;fill-rule:nonzero;"/>
    </g>
    <g transform="matrix(1.009789,0,0,1.009789,-522.817186,-526.814813)">
        <path d="M1029.19,863.949L1031.54,864.787C1032.91,870.105 1032.74,875.699 1031.07,880.926L1029.94,881.889C1028.76,876.553 1028.74,870.395 1028.49,864.864L1029.19,863.949Z" style="fill:#a7fbfc;fill-rule:nonzero;"/>
    </g>
    <g transform="matrix(1.009789,0,0,1.009789,-522.817186,-526.814813)">
        <path d="M1073.44,756.985C1071.84,753.791 1066.66,744.209 1067.71,741.437C1070.37,734.404 1085.8,718.836 1093.22,719.025C1097.06,725.257 1077.2,740.967 1093.86,751.639C1095.75,754.25 1095.55,753.172 1095.88,755.988L1097.46,764.075C1095.6,766.163 1095.82,765.903 1093.74,767.067C1089.28,769.569 1087.14,778.934 1084.4,784.124C1077.2,786.497 1044.87,791.177 1039.4,787.089L1029.77,788.28C1029.98,781.895 1029.74,778.192 1032.13,772.23C1034.78,770.318 1035.76,769.284 1038.02,767.026L1039.72,766.798L1041.57,770.139L1042.33,769.999C1042.63,768.69 1042.9,767.414 1043.12,766.085L1043.99,766.413L1044.56,768.735L1046.28,768.904L1047.19,770.244C1049.17,773.992 1047.49,778.499 1051.87,782.919L1054.4,782.867C1061.27,778.932 1068.95,764.301 1073.44,756.985Z" style="fill:#103ab2;fill-rule:nonzero;"/>
    </g>
    <g transform="matrix(1.009789,0,0,1.009789,-522.817186,-526.814813)">
        <path d="M1038.02,767.026L1039.72,766.798L1041.57,770.139C1041.05,775.815 1040.76,781.58 1039.4,787.089L1029.77,788.28C1029.98,781.895 1029.74,778.192 1032.13,772.23C1034.78,770.318 1035.76,769.284 1038.02,767.026Z" style="fill:#77cbfb;fill-rule:nonzero;"/>
    </g>
    <g transform="matrix(1.009789,0,0,1.009789,-522.817186,-526.814813)">
        <path d="M1176.82,675.921L1178.33,677.155C1177.68,681.39 1176.88,684.133 1177.95,688.21C1182.07,693.044 1184.21,692.118 1190.56,692.379L1192.02,692.852C1199.29,695.263 1197.14,696.106 1205.76,696.297L1206.67,697.15L1206.35,700.422C1201.59,704.355 1197.62,704.272 1191.79,705.339C1186.64,706.281 1175.64,711.415 1171.12,711.166C1169.15,707.032 1168.86,704.562 1165.45,702.546C1162.8,703.082 1161.26,703.853 1159.61,706.224L1153.76,707.901C1150.39,706.864 1144.3,703.936 1140.86,702.411C1147.62,701.526 1155.37,708.577 1161.2,702.275C1180.88,699.616 1173.92,692.408 1176.62,676.978L1176.82,675.921Z" style="fill:#4749cb;fill-rule:nonzero;"/>
    </g>
    <g transform="matrix(1.009789,0,0,1.009789,-522.817186,-526.814813)">
        <path d="M1153.76,707.901L1159.61,706.224C1163.94,709.269 1162.58,707.615 1164.73,712.503C1162.21,720.096 1152.93,718.904 1150.42,723.688L1152.16,726.259C1146.85,725.891 1147.85,723.369 1142.93,723.944L1140.64,727.473C1137.5,727.224 1128.09,715.106 1125.16,711.814C1132.57,714.116 1148.85,720.82 1154.05,713.084C1154.07,710.596 1154.22,710.297 1153.76,707.901Z" style="fill:#103ab2;fill-rule:nonzero;"/>
    </g>
    <g transform="matrix(1.009789,0,0,1.009789,-522.817186,-526.814813)">
        <path d="M999.169,799.577C1000.72,800.953 1001.85,801.705 1002.95,803.417C990.354,814.37 978.629,813.45 965.889,822.533L964.716,822.157L964.051,820.596C966.625,817.064 970.248,818.497 974.307,814.3C972.61,811.946 973.656,812.958 970.568,811.832L969.812,809.29C981.528,805.105 985.959,806.292 999.169,799.577Z" style="fill:#196ecc;fill-rule:nonzero;"/>
    </g>
    <g transform="matrix(1.009789,0,0,1.009789,-522.817186,-526.814813)">
        <path d="M1042.53,757.221C1044.48,762 1045.89,765.2 1047.19,770.244L1046.28,768.904L1044.56,768.735L1043.99,766.413L1043.12,766.085C1042.9,767.414 1042.63,768.69 1042.33,769.999L1041.57,770.139L1039.72,766.798L1038.02,767.026C1035.76,769.284 1034.78,770.318 1032.13,772.23C1025.54,771.63 1022.23,770.893 1019.57,764.341L1032.11,762.707C1035.42,761.016 1039.39,759.117 1042.53,757.221Z" style="fill:#4749cb;fill-rule:nonzero;"/>
    </g>
    <g transform="matrix(1.009789,0,0,1.009789,-522.817186,-526.814813)">
        <path d="M1093.86,751.639C1100.61,749.889 1119.83,744.971 1125.53,747.895L1124.91,750.739C1120.27,753.567 1110.18,751.391 1108.88,753.011C1104.02,759.103 1106.79,758.627 1095.88,755.988C1095.55,753.172 1095.75,754.25 1093.86,751.639Z" style="fill:#4749cb;fill-rule:nonzero;"/>
    </g>
    <g transform="matrix(1.009789,0,0,1.009789,-522.817186,-526.814813)">
        <path d="M1206.67,697.15C1211.42,699.618 1216.48,702.09 1220.99,704.927C1215.08,704.363 1211.6,703.448 1206.35,700.422L1206.67,697.15Z" style="fill:#4749cb;fill-rule:nonzero;"/>
    </g>
    <g transform="matrix(1.009789,0,0,1.009789,-522.817186,-526.814813)">
        <path d="M1170.04,830.812C1173.37,830.894 1175.62,830.541 1178.33,832.373L1178.33,834.002C1175.15,837.978 1172.31,840.066 1173.49,845.155C1178.43,851.513 1203.41,861.254 1197.5,870.467C1186.57,876.396 1173.69,870.274 1162.2,868.939C1157.86,868.435 1153.84,868.983 1149.54,869.532C1142.07,872.849 1133.06,879.115 1125.96,877.401C1118.89,870.551 1127.12,865.497 1128.73,860.563C1134.4,843.156 1134.48,830.506 1155.78,841.635C1159.47,843.56 1165.94,834.378 1170.04,830.812Z" style="fill:#103ab2;fill-rule:nonzero;"/>
    </g>
    <g transform="matrix(1.009789,0,0,1.009789,-522.817186,-526.814813)">
        <path d="M971.711,894.066C974.856,890.554 980.347,888.264 984.988,889.476C987.01,892.732 986.868,893.92 985.503,897.717L986.143,902.12C1001.13,900.644 1049.21,889.649 1032.53,918.668C1034.12,923.418 1041.23,926.834 1045.77,928.865C1059.89,935.176 1072.24,942.771 1085.79,950.149C1092.5,922.803 1098.51,929.723 1121.04,939.491C1114.21,940.186 1106.17,933.128 1103,935.666C1101.68,939.212 1099.73,947.567 1100.87,951.112L1103.49,950.272C1103.44,955.553 1070.67,1017.53 1064.99,1025.15C1040.32,1029.13 1001.75,1054.9 974.483,1061.94C941.814,1070.39 909.089,1070.03 875.893,1071.85C875.494,1076.01 886.21,1089.32 889.03,1092.95C893.793,1099.08 903.465,1108.2 911.339,1108.88C917.889,1109.44 926.971,1106.89 933.875,1106.96C940.023,1107.02 948.519,1109.75 954.394,1108.56C969.173,1105.57 970.754,1101.5 986.605,1102C995.929,1108.1 998.308,1116.73 1009,1113C1010.39,1112.51 1010.77,1112.9 1012.12,1113.38C1009.94,1114.79 1009.54,1113.92 1007.01,1114.59L998.882,1116.43C985.607,1093.07 970.025,1108.38 951.573,1110.35C945.296,1111.02 933.605,1107.88 926.572,1108.81C917.143,1110.04 916.217,1113.74 907.388,1110.54C903.646,1107.35 896.202,1103.12 893.015,1099.62C881.397,1086.86 862.677,1060.13 856.115,1044.88C874.4,1018.97 862.705,1017.46 869.639,989.279C875.331,967.335 901.657,954.889 914.301,941.297C921.786,912.291 929.508,920.37 945.924,902.014L946.397,902.033C950.612,897.286 960.837,899.816 971.711,894.066Z" style="fill:#77cbfb;fill-rule:nonzero;"/>
    </g>
    <g transform="matrix(1.009789,0,0,1.009789,-522.817186,-526.814813)">
        <path d="M971.711,894.066C974.856,890.554 980.347,888.264 984.988,889.476C987.01,892.732 986.868,893.92 985.503,897.717L986.143,902.12C972.853,903.731 951.074,917.157 946.397,902.033C950.612,897.286 960.837,899.816 971.711,894.066Z" style="fill:#4749cb;fill-rule:nonzero;"/>
    </g>
    <g transform="matrix(1.009789,0,0,1.009789,-522.817186,-526.814813)">
        <path d="M1226.79,691.29C1225.11,685.584 1226.95,679.881 1233.72,679.501C1237.05,681.114 1237.36,682.6 1239.05,685.929C1240.63,683.296 1240.58,683.995 1244.02,682.533C1246.82,690.723 1255.67,696.678 1262.51,702.424L1263.79,702.628C1265.81,707.558 1266.14,713.045 1260.97,715.807C1257.71,715.6 1254.54,714.212 1252.83,711.308C1255.46,705.693 1257.87,701.396 1249.47,698.538C1247.95,700.732 1246.47,702.958 1245.04,705.216L1241.23,706.347L1239.61,704.426C1232.78,700.695 1232.26,700.336 1224.78,698.51C1226.38,695.114 1226.26,694.884 1226.79,691.29Z" style="fill:#77cbfb;fill-rule:nonzero;"/>
    </g>
    <g transform="matrix(1.009789,0,0,1.009789,-522.817186,-526.814813)">
        <path d="M1244.02,682.533C1246.82,690.723 1255.67,696.678 1262.51,702.424C1263.63,707.051 1264.24,710.392 1261.5,714.456C1258.84,715.048 1259.03,715.049 1256.51,713.998C1255.73,711.582 1255.68,712.01 1256.84,709.579C1262.36,697.945 1244.21,696.638 1239.05,685.929C1240.63,683.296 1240.58,683.995 1244.02,682.533Z" style="fill:#4749cb;fill-rule:nonzero;"/>
    </g>
    <g transform="matrix(1.009789,0,0,1.009789,-522.817186,-526.814813)">
        <path d="M1226.79,691.29C1229.73,694.123 1239.05,701.848 1239.61,704.426C1232.78,700.695 1232.26,700.336 1224.78,698.51C1226.38,695.114 1226.26,694.884 1226.79,691.29Z" style="fill:#196ecc;fill-rule:nonzero;"/>
    </g>
    <g transform="matrix(1.009789,0,0,1.009789,-522.817186,-526.814813)">
        <path d="M1007.01,1114.59C1021.87,1115.33 1023.22,1125.53 1020.5,1138.21C1018.89,1132.36 1021.38,1127.82 1018.79,1123.32C1012.48,1121.77 1001.02,1122.53 997.655,1118.02L998.882,1116.43L1007.01,1114.59Z" style="fill:#251592;fill-rule:nonzero;"/>
    </g>
    <g transform="matrix(1.009789,0,0,1.009789,-522.817186,-526.814813)">
        <path d="M1235.96,834.165C1238.36,834.128 1240.76,834.345 1243.12,834.813C1246.46,835.475 1248.11,836.592 1250.05,839.342C1249.7,842.991 1249.45,842.434 1247.07,845.46C1238.06,856.895 1251.96,863.279 1261.03,868.535C1251.6,884.55 1279.34,894.167 1262.01,907.105C1253.21,906.597 1243.15,902.385 1239.82,893.795C1237.55,887.946 1239.88,884.861 1242.14,879.484C1234.16,865.768 1207.52,846.011 1235.96,834.165Z" style="fill:#251592;fill-rule:nonzero;"/>
    </g>
    <g transform="matrix(1.009789,0,0,1.009789,-522.817186,-526.814813)">
        <path d="M650.305,1282.06C659.317,1288.86 678.797,1319.26 689.675,1330.61C702.965,1344.46 716.056,1354.91 729.479,1367.66C732.846,1366.93 731.337,1367.68 733.929,1364.92C735.488,1353.32 717.954,1342.9 727.921,1324.94C729.949,1321.29 728.487,1319.78 728.671,1315.78L732.543,1322.36C731.791,1327.26 732.655,1327.9 728.421,1330.73C729.252,1334.8 739.4,1373.47 740.668,1375.18C754.259,1393.49 811.601,1428.69 830.489,1436.53C846.422,1446.07 860.804,1450.58 877.5,1456.91C885.334,1459.88 918.954,1468.89 922.202,1471.43C864.509,1455.71 809.99,1434 762.326,1397.3C721.047,1365.52 678.192,1326.13 650.305,1282.06Z" style="fill:#6233cf;fill-rule:nonzero;"/>
    </g>
    <defs>
        <linearGradient id="_Linear1" x1="0" y1="0" x2="1" y2="0" gradientUnits="userSpaceOnUse" gradientTransform="matrix(-72.89,87.932,-87.932,-72.89,1116.94,858.355)"><stop offset="0" style="stop-color:#0a27a2;stop-opacity:1"/><stop offset="1" style="stop-color:#2562dd;stop-opacity:1"/></linearGradient>
    </defs>
</svg>
